<svg width="363" height="406" viewBox="0 0 363 406" fill="none" xmlns="http://www.w3.org/2000/svg">
<path d="M172 179.5L191 158.5L197.5 161.5L195.5 169.5L183 199.5L177.5 193.5L169.5 188L172 179.5Z" fill="black" fill-opacity="0.7"/>
<path d="M211 200.5L209 217L232 192L241.5 198L249 205.5L254 217L256.5 223L249 232L235 246.5L228.5 252.5L275 253.5L276 241.5L277 226L276 195L273 173.5L267.5 162L261 156L256 152L248.5 151.5L243.5 148L235.5 151.5L229 150L224.5 148L222.5 158L211 200.5Z" fill="black" fill-opacity="0.7"/>
<circle cx="315.406" cy="82.8193" r="3.5" stroke="black" stroke-width="2"/>
<path d="M310.905 57.3194C309.572 53.9861 308.995 44.7624 314.406 43.3194C321.906 41.3193 330.405 48.8194 315.405 62.8194C314.905 65.3194 314.905 67.3194 314.905 68.8194M314.406 72.8194V75.3194" stroke="black" stroke-width="2"/>
<path d="M207.687 1.68886L207.785 2.68402L207.687 1.68886ZM268.687 22.1885L267.712 22.4134V22.4134L268.687 22.1885ZM180.687 24.8781L181.47 25.4995C181.782 25.1067 181.754 24.5441 181.406 24.1835C181.058 23.8229 180.496 23.7757 180.093 24.0732L180.687 24.8781ZM197.187 68.3781L197.713 67.5278L197.187 68.3781ZM201.551 70.8781L201.079 71.7594L201.551 70.8781ZM204.187 33.6886H205.187C205.187 33.1756 204.798 32.7457 204.288 32.6938C203.777 32.6418 203.311 32.9844 203.207 33.4869L204.187 33.6886ZM288.187 59.6886L287.226 59.9658L288.187 59.6886ZM261.187 140.689L261.955 140.048C261.64 139.671 261.097 139.578 260.674 139.83C260.252 140.082 260.075 140.603 260.258 141.06L261.187 140.689ZM243.687 146.689L244.53 146.152C244.239 145.694 243.637 145.552 243.172 145.831L243.687 146.689ZM141.687 94.1887L142.08 95.1078C142.387 94.9763 142.608 94.7003 142.67 94.3721L141.687 94.1887ZM184.687 154.689L185.188 153.823C185.17 153.813 185.152 153.803 185.134 153.794L184.687 154.689ZM163.687 138.689L164.615 139.06L163.687 138.689ZM180.687 127.689L180.929 128.659C181.168 128.599 181.376 128.454 181.514 128.25L180.687 127.689ZM220.187 121.689L221.019 121.134L220.187 121.689ZM223.687 154.689L222.729 154.401L223.687 154.689ZM210.187 205.189L211.174 205.345L210.187 205.189ZM208.321 218.689L207.329 218.559L208.321 218.689ZM245.187 201.689L244.479 202.396L245.187 201.689ZM255.837 223.689L256.617 224.315L255.837 223.689ZM187.687 276.189L187.47 275.213L187.687 276.189ZM167.687 240.689L168.658 240.924L167.687 240.689ZM170.187 273.189L169.511 273.926L170.187 273.189ZM176.187 155.133L175.669 155.989H175.669L176.187 155.133ZM177.687 161.189L178.651 161.452L177.687 161.189ZM191.187 158.306L191.657 157.424L191.187 158.306ZM197.187 161.189L196.87 162.137L197.187 161.189ZM171.687 179.623L170.738 179.308L171.687 179.623ZM169 187.689L168.051 187.372L169 187.689ZM271.687 171.189L272.646 170.907L271.687 171.189ZM228.161 107.189L227.171 107.042L228.161 107.189ZM229.084 94.6887L228.085 94.657L229.084 94.6887ZM241.687 97.6887L242.544 97.1742L241.687 97.6887ZM222.063 116.689L221.1 116.419L222.063 116.689ZM227.687 115.689L227.37 114.74L227.687 115.689ZM300.687 174.189L301.115 173.285L300.687 174.189ZM295.187 223.689L296.164 223.898L295.187 223.689ZM228.161 252.857L227.492 252.113L228.161 252.857ZM10.6865 377.189L10.9442 376.223L10.6865 377.189ZM72.1865 252.857L72.9053 253.552L72.995 253.46L73.0583 253.347L72.1865 252.857ZM111.687 251.689L112.68 251.578L111.687 251.689ZM165.44 252.857L166.434 252.967L165.44 252.857ZM151.187 165.689L152.065 166.166L152.534 165.304L151.68 164.819L151.187 165.689ZM130.687 150.689L129.773 151.095L130.687 150.689ZM149.687 143.189L149.208 142.311L149.687 143.189ZM150.974 141.189L149.975 141.145L150.974 141.189ZM223.374 155.739L224.333 156.023L223.374 155.739ZM16.1865 377.454L16.2021 376.454L16.1865 377.454ZM245.187 273.189L245.719 272.342L245.462 272.18L245.158 272.189L245.187 273.189ZM122.687 297.689L123.071 298.612L122.687 297.689ZM283.687 301.189L283.916 302.162L284.687 301.981V301.189H283.687ZM183.191 337.189L182.808 338.113L183.195 338.273L183.581 338.109L183.191 337.189ZM155.687 313.689L155.23 314.578L155.687 313.689ZM166.187 135.09L165.482 134.38L166.187 135.09ZM129.687 124.689L129.036 123.929L129.687 124.689ZM141.187 124.189L141.832 123.425L141.187 124.189ZM168.687 133.02L168.111 132.203L168.687 133.02ZM164.687 136.857L163.866 136.286L164.687 136.857ZM145.187 37.4991L146.046 38.0099L145.187 37.4991ZM143.136 49.9078L143.825 49.1833L143.136 49.9078ZM207.785 2.68402C251.596 -1.64357 266.153 15.6577 267.712 22.4134L269.661 21.9636C267.759 13.7212 251.777 -3.67118 207.588 0.693705L207.785 2.68402ZM267.712 22.4134C268.115 24.1589 268.07 25.5209 267.779 26.6035C267.489 27.6832 266.939 28.5444 266.241 29.2674C264.784 30.7767 262.834 31.5843 261.196 32.5067L262.177 34.2494C263.539 33.4822 265.954 32.4446 267.68 30.6563C268.574 29.7305 269.319 28.5798 269.711 27.1224C270.101 25.6679 270.123 23.9677 269.661 21.9636L267.712 22.4134ZM179.903 24.2567C177.976 26.6866 175.085 30.5077 172.67 34.0807C171.465 35.8654 170.366 37.6057 169.565 39.0886C169.164 39.8294 168.829 40.5234 168.591 41.1379C168.362 41.7298 168.187 42.3385 168.187 42.8781H170.187C170.187 42.7177 170.251 42.3899 170.456 41.86C170.652 41.3527 170.946 40.7397 171.324 40.0393C172.08 38.64 173.138 36.9615 174.328 35.2004C176.705 31.6817 179.564 27.9029 181.47 25.4995L179.903 24.2567ZM168.187 42.8781C168.187 43.2875 168.31 43.6952 168.465 44.0612C168.626 44.4386 168.851 44.8401 169.119 45.2552C169.656 46.0853 170.417 47.045 171.335 48.0863C173.175 50.1729 175.721 52.67 178.58 55.246C184.293 60.3947 191.342 65.9363 196.66 69.2284L197.713 67.5278C192.531 64.3199 185.58 58.8615 179.918 53.7602C177.09 51.2111 174.605 48.7708 172.835 46.7636C171.948 45.758 171.26 44.8818 170.799 44.1689C170.568 43.8125 170.407 43.5157 170.306 43.2784C170.2 43.0297 170.187 42.9061 170.187 42.8781H168.187ZM196.66 69.2284C198.019 70.0693 199.51 70.9183 201.079 71.7594L202.024 69.9968C200.482 69.1702 199.028 68.3421 197.713 67.5278L196.66 69.2284ZM201.551 70.8781C202.55 70.8353 202.55 70.8353 202.55 70.8353C202.55 70.8352 202.55 70.835 202.55 70.8348C202.55 70.8343 202.55 70.8335 202.55 70.8324C202.55 70.8303 202.55 70.8269 202.55 70.8223C202.55 70.813 202.549 70.799 202.548 70.7802C202.547 70.7426 202.545 70.686 202.542 70.6112C202.536 70.4615 202.529 70.2388 202.521 69.9487C202.504 69.3684 202.484 68.5189 202.471 67.4456C202.445 65.2988 202.446 62.2585 202.556 58.6892C202.776 51.5423 203.433 42.3096 205.166 33.8903L203.207 33.4869C201.44 42.0676 200.779 51.4297 200.557 58.6275C200.446 62.2306 200.445 65.3001 200.471 67.4701C200.484 68.5552 200.505 69.4158 200.521 70.0061C200.53 70.3013 200.538 70.5289 200.543 70.6832C200.546 70.7604 200.548 70.8193 200.55 70.8591C200.551 70.8791 200.551 70.8942 200.552 70.9046C200.552 70.9097 200.552 70.9137 200.552 70.9164C200.552 70.9178 200.552 70.9188 200.552 70.9196C200.552 70.9199 200.552 70.9203 200.552 70.9205C200.552 70.9207 200.552 70.9209 201.551 70.8781ZM201.079 71.7594C203.047 72.8147 205.142 73.8605 207.257 74.8657L208.116 73.0594C206.023 72.0646 203.957 71.0335 202.024 69.9968L201.079 71.7594ZM203.187 33.6886C203.187 46.2491 204.187 62.8002 206.71 74.179L208.663 73.7461C206.186 62.5771 205.187 46.1949 205.187 33.6886H203.187ZM207.257 74.8657C208.936 75.6635 210.628 76.4363 212.281 77.1688L213.092 75.3403C211.452 74.6139 209.776 73.8485 208.116 73.0594L207.257 74.8657ZM212.281 77.1688C217.319 79.4006 222.003 81.2625 224.838 82.3155L225.535 80.4407C222.737 79.4016 218.091 77.5552 213.092 75.3403L212.281 77.1688ZM211.697 76.3973C213.203 86.8437 213.183 96.1448 211.697 106.547L213.676 106.83C215.189 96.2423 215.21 86.7498 213.676 76.1118L211.697 76.3973ZM266.292 40.8724C268.729 40.6132 272.886 41.6345 277.008 44.6511C281.095 47.6416 285.088 52.5554 287.226 59.9658L289.147 59.4114C286.885 51.569 282.628 46.285 278.19 43.0371C273.787 39.8154 269.144 38.5578 266.081 38.8837L266.292 40.8724ZM287.226 59.9658C292.668 78.8304 291.668 96.5226 284.77 112.288L286.603 113.089C293.705 96.8547 294.705 78.6787 289.147 59.4114L287.226 59.9658ZM284.77 112.288C281.287 120.25 278.805 124.717 277.3 127.601C275.842 130.394 275.082 132.037 275.738 134.005L277.635 133.372C277.291 132.341 277.531 131.483 279.073 128.526C280.568 125.661 283.086 121.127 286.603 113.089L284.77 112.288ZM275.738 134.005C276.022 134.857 276.686 135.526 277.417 136.061C278.162 136.607 279.094 137.098 280.088 137.557C281.086 138.019 282.193 138.467 283.299 138.914C284.415 139.364 285.532 139.813 286.589 140.288C288.753 141.26 290.45 142.252 291.287 143.361C291.679 143.881 291.852 144.389 291.827 144.928C291.801 145.483 291.558 146.193 290.887 147.089L292.487 148.289C293.315 147.184 293.775 146.097 293.825 145.021C293.876 143.929 293.499 142.973 292.883 142.157C291.704 140.594 289.557 139.429 287.409 138.464C286.31 137.97 285.154 137.505 284.048 137.059C282.934 136.609 281.873 136.179 280.926 135.742C279.975 135.302 279.184 134.876 278.599 134.447C277.999 134.008 277.726 133.645 277.635 133.372L275.738 134.005ZM290.887 147.089C289.663 148.72 287.555 149.436 284.757 149.392C281.969 149.347 278.697 148.543 275.464 147.373C272.243 146.207 269.122 144.701 266.656 143.303C265.424 142.604 264.364 141.938 263.544 141.361C262.701 140.768 262.177 140.315 261.955 140.048L260.418 141.329C260.821 141.812 261.532 142.391 262.393 142.997C263.278 143.619 264.395 144.32 265.67 145.043C268.22 146.488 271.443 148.045 274.784 149.254C278.113 150.459 281.622 151.342 284.725 151.392C287.818 151.441 290.71 150.658 292.487 148.289L290.887 147.089ZM234.187 150.189C232.132 150.189 229.833 149.673 228.013 148.973C227.104 148.624 226.352 148.243 225.828 147.884C225.565 147.704 225.383 147.546 225.27 147.42C225.149 147.286 225.156 147.243 225.167 147.296L223.209 147.704C223.298 148.132 223.539 148.486 223.783 148.758C224.036 149.039 224.353 149.298 224.699 149.534C225.39 150.008 226.294 150.455 227.295 150.84C229.297 151.61 231.841 152.189 234.187 152.189V150.189ZM147.704 56.5051L140.704 94.0052L142.67 94.3721L149.67 56.8721L147.704 56.5051ZM183.829 154.174C183.64 154.489 183.224 155.016 182.645 155.454C182.07 155.89 181.402 156.189 180.687 156.189V158.189C181.971 158.189 183.053 157.654 183.853 157.048C184.649 156.445 185.233 155.721 185.544 155.203L183.829 154.174ZM181.514 128.25C183.049 125.988 185.852 122.675 189.225 120.138C192.625 117.581 196.411 115.953 199.99 116.669L200.383 114.708C195.962 113.824 191.581 115.863 188.023 118.539C184.438 121.236 181.491 124.723 179.859 127.127L181.514 128.25ZM199.99 116.669C203.688 117.409 207.093 119.98 209.887 123.027C212.667 126.059 214.74 129.45 215.786 131.622L217.588 130.755C216.467 128.427 214.289 124.868 211.361 121.675C208.446 118.497 204.685 115.569 200.383 114.708L199.99 116.669ZM209.485 120.643C210.727 120.255 212.75 119.88 214.714 120.024C216.694 120.168 218.402 120.815 219.354 122.243L221.019 121.134C219.571 118.962 217.113 118.193 214.859 118.029C212.59 117.864 210.313 118.289 208.888 118.734L209.485 120.643ZM219.354 122.243C219.649 122.686 219.975 123.436 220.305 124.492C220.63 125.531 220.941 126.801 221.23 128.237C221.807 131.109 222.287 134.589 222.629 138.098C222.97 141.606 223.171 145.122 223.194 148.064C223.218 151.053 223.055 153.315 222.729 154.401L224.644 154.976C225.069 153.562 225.218 151.011 225.194 148.048C225.171 145.036 224.965 141.459 224.619 137.904C224.273 134.35 223.785 130.8 223.19 127.843C222.893 126.365 222.567 125.022 222.214 123.895C221.867 122.785 221.474 121.817 221.019 121.134L219.354 122.243ZM209.199 205.033C208.756 207.835 208.077 212.829 207.329 218.559L209.313 218.818C210.06 213.084 210.737 208.117 211.174 205.345L209.199 205.033ZM207.329 218.559C206.038 228.46 204.538 240.601 203.694 247.568L205.679 247.809C206.523 240.845 208.022 228.71 209.313 218.818L207.329 218.559ZM209.069 219.352L232.435 192.977L230.938 191.651L207.572 218.025L209.069 219.352ZM232.435 192.977L248.935 174.352L247.438 173.025L230.938 191.651L232.435 192.977ZM231.318 193.243C234.015 194.314 240.15 198.066 244.479 202.396L245.894 200.981C241.387 196.475 235.025 192.563 232.056 191.384L231.318 193.243ZM267.812 204.703C264.865 210.009 260.458 216.341 255.058 223.062L256.617 224.315C262.06 217.54 266.54 211.112 269.561 205.674L267.812 204.703ZM244.479 202.396C251.268 209.184 252.939 218.486 254.894 224.022L256.78 223.356C254.968 218.224 253.105 208.193 245.894 200.981L244.479 202.396ZM170.939 143.853C172.29 145.373 174.562 147.771 177.005 150.045C179.424 152.297 182.099 154.513 184.239 155.583L185.134 153.794C183.275 152.865 180.783 150.83 178.368 148.582C175.978 146.356 173.749 144.004 172.434 142.524L170.939 143.853ZM169.511 273.926C172.158 276.352 176.056 277.296 179.528 277.585C183.027 277.877 186.303 277.52 187.903 277.165L187.47 275.213C186.07 275.524 182.996 275.867 179.695 275.592C176.367 275.315 173.016 274.425 170.862 272.452L169.511 273.926ZM176.704 154.278C173.835 152.541 170.245 149.866 167.662 146.982C166.369 145.539 165.368 144.086 164.816 142.711C164.267 141.345 164.188 140.127 164.615 139.06L162.758 138.317C162.083 140.004 162.285 141.776 162.96 143.457C163.631 145.129 164.795 146.779 166.172 148.316C168.927 151.392 172.69 154.186 175.669 155.989L176.704 154.278ZM184.186 155.554C185.768 156.47 188.286 157.891 190.716 159.188L191.657 157.424C189.252 156.14 186.755 154.731 185.188 153.823L184.186 155.554ZM190.716 159.188C193.138 160.481 195.568 161.703 196.87 162.137L197.503 160.24C196.393 159.87 194.12 158.738 191.657 157.424L190.716 159.188ZM176.722 160.925C176.311 162.43 173.977 169.559 170.738 179.308L172.636 179.938C175.861 170.232 178.222 163.025 178.651 161.452L176.722 160.925ZM190.449 157.631L170.949 178.948L172.424 180.298L191.924 158.981L190.449 157.631ZM170.738 179.308C169.896 181.84 168.994 184.546 168.051 187.372L169.948 188.005C170.892 185.179 171.794 182.472 172.636 179.938L170.738 179.308ZM168.051 187.372C162.259 204.724 154.899 226.575 150.239 240.368L152.134 241.009C156.794 227.214 164.155 205.36 169.948 188.005L168.051 187.372ZM168.578 188.595C169.392 188.974 172.023 190.441 175.587 193.114L176.787 191.514C173.15 188.786 170.398 187.236 169.422 186.782L168.578 188.595ZM196.87 162.137C196.671 162.071 196.54 161.94 196.47 161.831C196.439 161.782 196.422 161.741 196.413 161.716C196.409 161.704 196.406 161.694 196.404 161.688C196.403 161.682 196.402 161.679 196.402 161.679C196.402 161.678 196.402 161.681 196.403 161.686C196.404 161.691 196.404 161.698 196.405 161.708C196.407 161.728 196.408 161.756 196.407 161.792C196.407 161.866 196.401 161.963 196.386 162.086C196.327 162.596 196.15 163.374 195.848 164.42C195.247 166.494 194.206 169.434 192.855 172.993C190.155 180.104 186.256 189.578 182.265 199.309L184.116 200.068C188.101 190.349 192.013 180.844 194.725 173.703C196.079 170.136 197.144 167.132 197.769 164.976C198.079 163.906 198.294 162.997 198.373 162.316C198.411 161.984 198.427 161.631 198.369 161.315C198.317 161.035 198.137 160.451 197.503 160.24L196.87 162.137ZM175.587 193.114C179.073 195.729 181.563 198.973 182.343 200.219L184.038 199.158C183.149 197.737 180.5 194.298 176.787 191.514L175.587 193.114ZM255.737 151.087C248.873 151.779 245.483 147.648 244.53 146.152L242.843 147.225C244.01 149.059 248.024 153.874 255.938 153.076L255.737 151.087ZM255.517 153.029C256.265 153.282 257.429 153.953 258.837 155.034C260.225 156.099 261.788 157.515 263.333 159.191C266.431 162.555 269.385 166.894 270.727 171.47L272.646 170.907C271.188 165.936 268.025 161.333 264.803 157.836C263.187 156.082 261.54 154.588 260.055 153.448C258.589 152.323 257.218 151.493 256.158 151.134L255.517 153.029ZM270.727 171.47C274.194 183.292 275.687 192.259 275.687 213.689H277.687C277.687 192.118 276.179 182.954 272.646 170.907L270.727 171.47ZM275.687 213.689C275.687 230.857 274.688 247.463 274.19 253.608L276.183 253.769C276.685 247.581 277.687 230.92 277.687 213.689H275.687ZM227.171 107.042C227.034 107.969 226.883 108.781 226.716 109.446L228.657 109.931C228.844 109.181 229.007 108.299 229.15 107.335L227.171 107.042ZM227.907 108.156L237.433 110.656L237.94 108.721L228.414 106.221L227.907 108.156ZM228.187 88.6887C228.187 90.2142 228.158 92.3255 228.085 94.657L230.084 94.7203C230.158 92.3684 230.187 90.236 230.187 88.6887H228.187ZM228.085 94.657C227.953 98.8056 227.679 103.605 227.171 107.042L229.15 107.335C229.675 103.778 229.952 98.8824 230.084 94.7203L228.085 94.657ZM229.57 95.5629C230.789 94.8856 232.844 94.2044 234.969 94.373C237.035 94.537 239.208 95.5016 240.829 98.2031L242.544 97.1742C240.565 93.8757 237.787 92.5903 235.127 92.3793C232.526 92.1729 230.08 92.9917 228.599 93.8144L229.57 95.5629ZM240.829 98.2031C242.905 101.664 243.297 106.373 242.092 111.131C240.891 115.877 238.125 120.562 234.051 123.917L235.322 125.461C239.748 121.816 242.732 116.75 244.031 111.622C245.326 106.505 244.968 101.214 242.544 97.1742L240.829 98.2031ZM223.211 107.967C222.721 110.124 221.873 113.652 221.1 116.419L223.026 116.958C223.812 114.146 224.668 110.582 225.162 108.41L223.211 107.967ZM221.1 116.419C220.831 117.38 220.574 118.238 220.347 118.91C220.105 119.627 219.933 120.015 219.854 120.134L221.519 121.243C221.767 120.87 222.013 120.227 222.242 119.551C222.485 118.83 222.753 117.934 223.026 116.958L221.1 116.419ZM221.656 117.602C221.932 117.725 222.265 117.762 222.564 117.771C222.894 117.781 223.304 117.758 223.797 117.692C224.785 117.561 226.16 117.252 228.003 116.637L227.37 114.74C225.613 115.326 224.364 115.599 223.533 115.71C223.118 115.765 222.819 115.778 222.623 115.772C222.394 115.765 222.38 115.735 222.469 115.775L221.656 117.602ZM228.003 116.637C229.836 116.026 231.171 115.468 232.102 115.011C232.995 114.574 233.601 114.188 233.894 113.896L232.479 112.482C232.485 112.476 232.466 112.495 232.406 112.539C232.35 112.581 232.27 112.636 232.163 112.703C231.948 112.838 231.639 113.011 231.221 113.216C230.386 113.626 229.137 114.151 227.37 114.74L228.003 116.637ZM269.029 167.176C272.676 167.756 278.627 168.852 284.609 170.25C290.614 171.653 296.564 173.342 300.258 175.092L301.115 173.285C297.209 171.435 291.075 169.707 285.064 168.302C279.029 166.892 273.031 165.788 269.344 165.201L269.029 167.176ZM300.258 175.092C302.621 176.212 304.296 177.097 305.493 177.86C306.691 178.624 307.357 179.232 307.753 179.777C308.132 180.299 308.309 180.822 308.417 181.515C308.474 181.874 308.51 182.267 308.549 182.735C308.588 183.194 308.628 183.719 308.693 184.299L310.68 184.078C310.62 183.533 310.582 183.043 310.542 182.568C310.503 182.102 310.462 181.643 310.393 181.205C310.252 180.305 309.991 179.453 309.37 178.6C308.766 177.77 307.869 177.003 306.568 176.173C305.265 175.343 303.502 174.415 301.115 173.285L300.258 175.092ZM308.693 184.299C308.732 184.657 308.649 185.319 308.366 186.336C308.094 187.321 307.668 188.529 307.122 189.926C306.03 192.722 304.494 196.182 302.833 199.975C299.531 207.514 295.734 216.361 294.209 223.479L296.164 223.898C297.639 217.016 301.342 208.363 304.665 200.777C306.316 197.008 307.874 193.498 308.985 190.654C309.541 189.231 309.994 187.951 310.294 186.871C310.584 185.824 310.766 184.845 310.68 184.078L308.693 184.299ZM294.209 223.479C291.798 234.727 289.415 255.27 288.756 260.052L290.737 260.325C291.411 255.441 293.775 235.05 296.164 223.898L294.209 223.479ZM255.058 223.062C247.384 232.613 237.735 242.911 227.492 252.113L228.829 253.601C239.153 244.326 248.876 233.95 256.617 224.315L255.058 223.062ZM227.492 252.113C221.168 257.796 213.363 263.087 206.015 267.208C198.65 271.338 191.828 274.244 187.47 275.213L187.903 277.165C192.545 276.133 199.568 273.116 206.994 268.952C214.437 264.778 222.37 259.404 228.829 253.601L227.492 252.113ZM228.145 253.857C245.978 254.134 282.076 254.689 283.687 254.689V252.689C282.097 252.689 246.027 252.135 228.176 251.857L228.145 253.857ZM283.687 254.689C283.492 254.689 283.358 254.627 283.333 254.616C283.291 254.596 283.27 254.582 283.277 254.586C283.291 254.596 283.337 254.629 283.422 254.704C283.588 254.849 283.829 255.081 284.147 255.409C284.779 256.06 285.659 257.026 286.758 258.274C288.954 260.767 291.99 264.343 295.59 268.664C302.787 277.306 312.22 288.91 321.654 300.749C331.089 312.589 340.52 324.659 347.715 334.235C351.314 339.024 354.347 343.181 356.54 346.37C357.638 347.965 358.518 349.308 359.152 350.362C359.809 351.454 360.137 352.134 360.22 352.446L362.153 351.931C361.986 351.306 361.506 350.396 360.865 349.331C360.202 348.228 359.296 346.847 358.188 345.236C355.971 342.013 352.919 337.831 349.314 333.033C342.103 323.437 332.659 311.35 323.219 299.503C313.778 287.655 304.336 276.04 297.127 267.385C293.523 263.058 290.473 259.466 288.259 256.952C287.153 255.697 286.248 254.702 285.582 254.016C285.251 253.675 284.965 253.396 284.736 253.196C284.624 253.098 284.504 253.001 284.387 252.923C284.329 252.884 284.251 252.836 284.16 252.795C284.086 252.761 283.912 252.689 283.687 252.689V254.689ZM360.22 352.446C361.167 355.996 360.94 360.207 360.326 363.769C360.021 365.539 359.625 367.122 359.247 368.347C358.855 369.615 358.515 370.393 358.354 370.634L360.019 371.743C360.358 371.234 360.768 370.2 361.158 368.937C361.561 367.63 361.977 365.963 362.297 364.109C362.933 360.421 363.206 355.882 362.153 351.931L360.22 352.446ZM355.176 351.189L10.6764 354.689L10.6967 356.689L355.197 353.189L355.176 351.189ZM10.9442 376.223C7.64638 375.343 5.1966 372.327 3.68419 368.335C2.18134 364.367 1.69834 359.657 2.17881 355.813L0.194257 355.565C-0.32527 359.721 0.191728 364.76 1.81388 369.043C3.42647 373.3 6.22669 377.034 10.4289 378.155L10.9442 376.223ZM2.17881 355.813C2.21827 355.497 2.45685 354.815 2.99353 353.709C3.50991 352.644 4.24763 351.293 5.18311 349.689C7.05278 346.484 9.68224 342.322 12.8349 337.522C19.1383 327.924 27.5059 315.815 36.0033 303.788C44.4997 291.762 53.1209 279.825 59.9295 270.573C63.3339 265.946 66.2834 261.994 68.5365 259.038C70.8104 256.055 72.3312 254.146 72.9053 253.552L71.4678 252.162C70.7919 252.861 69.1877 254.884 66.9459 257.825C64.6834 260.794 61.7266 264.756 58.3186 269.387C51.5021 278.651 42.8734 290.598 34.3698 302.634C25.8672 314.669 17.4847 326.799 11.1632 336.424C8.00332 341.236 5.35154 345.431 3.45558 348.681C2.50825 350.305 1.74207 351.706 1.19399 352.836C0.666217 353.924 0.279795 354.88 0.194257 355.565L2.17881 355.813ZM73.0583 253.347C72.9669 253.51 72.8789 253.496 73.0937 253.401C73.2666 253.324 73.5395 253.237 73.9299 253.149C74.7058 252.973 75.8034 252.823 77.1728 252.7C79.903 252.454 83.5843 252.329 87.6473 252.285C95.7664 252.197 105.323 252.438 111.647 252.688L111.726 250.689C105.383 250.439 95.79 250.197 87.6257 250.285C83.5471 250.329 79.8034 250.455 76.994 250.708C75.5937 250.833 74.3928 250.993 73.4876 251.198C73.0376 251.3 72.6243 251.422 72.2837 251.572C71.9851 251.705 71.5561 251.938 71.3148 252.367L73.0583 253.347ZM166.715 240.453C165.618 244.977 164.853 249.069 164.446 252.747L166.434 252.967C166.829 249.396 167.576 245.39 168.658 240.924L166.715 240.453ZM164.446 252.747C163.363 262.521 164.783 269.592 169.511 273.926L170.862 272.452C166.859 268.782 165.371 262.555 166.434 252.967L164.446 252.747ZM153.187 253.857H165.44V251.857H153.187V253.857ZM182.265 199.309C176.667 212.963 170.882 227.141 168.046 235.88L169.948 236.497C172.756 227.848 178.504 213.753 184.116 200.068L182.265 199.309ZM168.046 235.88C167.48 237.624 167.027 239.166 166.715 240.453L168.658 240.924C168.954 239.705 169.391 238.216 169.948 236.497L168.046 235.88ZM168.248 235.526C165.654 238.461 158.864 245.9 152.487 252.143L153.886 253.572C160.309 247.284 167.134 239.807 169.747 236.851L168.248 235.526ZM152.488 252.142C151.341 253.261 149.363 255.074 147.18 256.851C144.984 258.64 142.637 260.346 140.739 261.294L141.634 263.083C143.736 262.032 146.223 260.21 148.443 258.402C150.676 256.584 152.699 254.731 153.885 253.573L152.488 252.142ZM140.739 261.294C136.862 263.233 132.514 264.189 129.687 264.189V266.189C132.859 266.189 137.511 265.144 141.634 263.083L140.739 261.294ZM129.687 264.189C123.518 264.189 119.481 262.655 116.899 260.387C114.319 258.121 113.061 255.006 112.68 251.578L110.693 251.799C111.112 255.571 112.524 259.206 115.579 261.89C118.633 264.572 123.196 266.189 129.687 266.189V264.189ZM112.68 251.578C112.549 250.397 112.798 248.561 113.446 246.109C114.086 243.687 115.087 240.767 116.376 237.466C118.952 230.866 122.648 222.817 126.814 214.316C135.143 197.317 145.314 178.585 152.065 166.166L150.308 165.211C143.559 177.625 133.369 196.393 125.018 213.436C120.843 221.956 117.119 230.063 114.513 236.739C113.21 240.076 112.18 243.074 111.512 245.598C110.853 248.092 110.518 250.23 110.693 251.799L112.68 251.578ZM151.68 164.819C148.614 163.079 143.915 160.244 139.791 157.403C137.728 155.981 135.826 154.569 134.349 153.3C133.61 152.666 132.991 152.078 132.515 151.552C132.03 151.016 131.737 150.591 131.6 150.282L129.773 151.095C130.036 151.687 130.491 152.296 131.032 152.894C131.583 153.503 132.269 154.15 133.046 154.817C134.599 156.152 136.566 157.609 138.657 159.049C142.841 161.933 147.592 164.798 150.693 166.558L151.68 164.819ZM131.6 150.282C131.177 149.33 130.871 147.668 130.779 145.597C130.689 143.555 130.81 141.218 131.174 138.974C131.539 136.721 132.14 134.617 132.979 133.011C133.828 131.386 134.832 130.433 135.929 130.159L135.444 128.218C133.541 128.694 132.17 130.241 131.206 132.085C130.233 133.948 129.584 136.281 129.199 138.653C128.813 141.034 128.685 143.509 128.781 145.686C128.877 147.834 129.196 149.797 129.773 151.095L131.6 150.282ZM135.929 130.159C136.884 129.92 138.241 130.132 139.852 130.811C141.434 131.477 143.125 132.536 144.676 133.786C146.227 135.037 147.602 136.449 148.567 137.798C149.56 139.187 150.009 140.353 149.975 141.145L151.973 141.232C152.037 139.75 151.257 138.121 150.194 136.635C149.103 135.109 147.593 133.569 145.931 132.229C144.27 130.89 142.419 129.722 140.629 128.968C138.868 128.226 137.022 127.824 135.444 128.218L135.929 130.159ZM149.975 141.145C149.954 141.632 149.756 142.012 149.208 142.311L150.165 144.066C151.327 143.433 151.921 142.42 151.973 141.232L149.975 141.145ZM150.451 142.041C152.338 143.197 156.634 146.164 158.927 148.839L160.446 147.538C157.939 144.613 153.418 141.513 151.496 140.336L150.451 142.041ZM158.927 148.839C161.203 151.494 162.41 154.742 162.716 155.979L164.657 155.499C164.296 154.036 162.97 150.483 160.446 147.538L158.927 148.839ZM149.208 142.311C146.615 143.725 144.296 143.109 142.226 141.784L141.147 143.468C143.584 145.028 146.709 145.952 150.165 144.066L149.208 142.311ZM142.226 141.784C140.495 140.676 139.053 139.141 137.894 137.981L136.479 139.396C137.571 140.487 139.19 142.215 141.147 143.468L142.226 141.784ZM140.702 142.449C140.54 143.353 140.248 144.701 139.906 145.807C139.733 146.367 139.561 146.819 139.405 147.113C139.368 147.183 139.336 147.237 139.31 147.276C139.297 147.295 139.286 147.309 139.279 147.319C139.271 147.329 139.267 147.333 139.267 147.333C139.268 147.332 139.274 147.325 139.288 147.315C139.301 147.304 139.324 147.287 139.357 147.27C139.423 147.233 139.537 147.189 139.687 147.189V149.189C140.185 149.189 140.531 148.905 140.71 148.718C140.903 148.517 141.054 148.273 141.174 148.047C141.416 147.588 141.632 146.997 141.817 146.398C142.191 145.187 142.5 143.753 142.671 142.803L140.702 142.449ZM222.729 154.401C222.649 154.668 222.543 155.023 222.415 155.455L224.333 156.023C224.461 155.592 224.565 155.24 224.644 154.976L222.729 154.401ZM222.415 155.455C221.275 159.309 218.331 169.429 215.495 179.712C212.666 189.966 209.92 200.466 209.199 205.033L211.174 205.345C211.874 200.915 214.582 190.541 217.423 180.244C220.255 169.975 223.196 159.868 224.333 156.023L222.415 155.455ZM346.662 370.189C246.009 372.64 51.6431 377.005 16.2021 376.454L16.171 378.453C51.6641 379.005 246.09 374.639 346.711 372.188L346.662 370.189ZM16.2021 376.454C14.6444 376.429 13.4031 376.396 12.4948 376.353C12.0402 376.331 11.677 376.307 11.4032 376.282C11.2664 376.27 11.158 376.257 11.0753 376.245C11.0342 376.239 11.0024 376.234 10.9787 376.23C10.9543 376.225 10.9439 376.222 10.9442 376.223L10.4289 378.155C10.7975 378.253 11.5126 378.308 12.3998 378.35C13.3393 378.395 14.6051 378.429 16.171 378.453L16.2021 376.454ZM15.1865 377.454V405.689H17.1865V377.454H15.1865ZM354.189 372.114L351.689 405.614L353.684 405.763L356.184 372.263L354.189 372.114ZM245.158 272.189C218.807 272.942 189.605 278.46 166.264 284.092C142.938 289.72 125.376 295.485 122.302 296.766L123.071 298.612C125.997 297.393 143.435 291.657 166.734 286.036C190.018 280.418 219.066 274.935 245.215 274.188L245.158 272.189ZM122.302 296.766C120.2 297.641 118.932 298.915 118.466 300.434C118.007 301.934 118.402 303.443 119.138 304.657C119.874 305.871 121.006 306.893 122.23 307.478C123.437 308.056 124.914 308.282 126.183 307.557L125.19 305.82C124.709 306.096 123.976 306.097 123.092 305.674C122.226 305.26 121.386 304.507 120.849 303.621C120.312 302.735 120.134 301.819 120.379 301.019C120.618 300.238 121.332 299.336 123.071 298.612L122.302 296.766ZM244.654 274.035C249.838 277.296 259.437 283.155 267.752 288.768C271.911 291.575 275.722 294.303 278.485 296.599C279.869 297.749 280.963 298.768 281.702 299.617C282.071 300.041 282.332 300.4 282.495 300.692C282.666 300.997 282.687 301.152 282.687 301.189H284.687C284.687 300.663 284.487 300.158 284.24 299.716C283.986 299.261 283.631 298.787 283.21 298.304C282.368 297.336 281.181 296.238 279.763 295.06C276.922 292.7 273.045 289.928 268.871 287.11C260.52 281.473 250.869 275.582 245.719 272.342L244.654 274.035ZM283.457 300.215C249.362 308.238 215.786 322.273 182.8 336.268L183.581 338.109C216.587 324.105 250.011 310.14 283.916 302.162L283.457 300.215ZM183.574 336.265C173.381 332.039 157.998 323.964 145.294 316.732C138.947 313.118 133.286 309.726 129.294 307.141C127.294 305.847 125.733 304.768 124.717 303.973C124.202 303.57 123.865 303.269 123.683 303.068C123.585 302.961 123.582 302.935 123.602 302.978C123.604 302.983 123.793 303.38 123.487 303.789L121.887 302.589C121.505 303.098 121.702 303.638 121.791 303.828C121.898 304.055 122.06 304.256 122.203 304.413C122.502 304.743 122.947 305.128 123.484 305.548C124.572 306.399 126.193 307.517 128.207 308.82C132.243 311.433 137.94 314.847 144.305 318.47C157.027 325.713 172.497 333.838 182.808 338.113L183.574 336.265ZM123.487 303.789C123.412 303.889 123.351 303.896 123.42 303.868C123.483 303.843 123.607 303.809 123.813 303.783C124.225 303.733 124.833 303.734 125.65 303.814C127.274 303.973 129.565 304.429 132.427 305.238C138.142 306.855 146.03 309.854 155.23 314.578L156.143 312.799C146.843 308.023 138.831 304.972 132.971 303.314C130.046 302.486 127.63 301.998 125.845 301.823C124.957 301.736 124.185 301.722 123.568 301.798C123.259 301.837 122.956 301.901 122.683 302.009C122.417 302.115 122.111 302.289 121.887 302.589L123.487 303.789ZM155.23 314.578C169.955 322.14 177.16 329.279 178.862 331.755L180.511 330.622C178.546 327.765 171.018 320.437 156.143 312.799L155.23 314.578ZM130.639 138.385C130.073 136.604 129.393 133.783 129.196 131.139C129.098 129.817 129.124 128.583 129.323 127.565C129.524 126.533 129.879 125.84 130.337 125.448L129.036 123.929C128.094 124.737 127.603 125.936 127.36 127.181C127.114 128.44 127.096 129.869 127.202 131.288C127.413 134.128 128.134 137.107 128.734 138.992L130.639 138.385ZM130.337 125.448C131.815 124.181 133.766 123.82 135.753 123.937C137.735 124.053 139.625 124.641 140.815 125.117L141.558 123.26C140.248 122.736 138.139 122.074 135.87 121.94C133.607 121.807 131.058 122.196 129.036 123.929L130.337 125.448ZM166.891 135.799C167.588 135.107 168.39 134.452 169.262 133.838L168.111 132.203C167.166 132.868 166.273 133.594 165.482 134.38L166.891 135.799ZM169.262 133.838C173.064 131.163 178.034 129.383 180.929 128.659L180.444 126.719C177.404 127.478 172.18 129.339 168.111 132.203L169.262 133.838ZM164.615 139.06C164.837 138.504 165.138 137.96 165.507 137.428L163.866 136.286C163.42 136.926 163.044 137.603 162.758 138.317L164.615 139.06ZM165.507 137.428C165.897 136.868 166.362 136.324 166.891 135.799L165.482 134.38C164.881 134.977 164.334 135.612 163.866 136.286L165.507 137.428ZM141.293 93.2695C137.655 94.8284 135.135 97.0919 133.593 99.7795C132.055 102.461 131.529 105.497 131.764 108.55C132.233 114.627 135.72 120.881 140.541 124.953L141.832 123.425C137.367 119.655 134.181 113.876 133.758 108.397C133.549 105.672 134.023 103.05 135.328 100.775C136.629 98.5061 138.794 96.5162 142.08 95.1078L141.293 93.2695ZM140.541 124.953C145.852 129.437 153.871 132.624 160.483 133.999L160.89 132.041C154.485 130.709 146.81 127.628 141.832 123.425L140.541 124.953ZM260.258 141.06C261.763 144.822 261.213 147.053 260.166 148.436C259.056 149.903 257.193 150.685 255.58 151.115L256.095 153.048C257.831 152.585 260.237 151.656 261.761 149.643C263.349 147.545 263.799 144.526 262.115 140.317L260.258 141.06ZM243.172 145.831C242.661 146.138 242.123 146.619 241.616 147.059C241.079 147.526 240.499 148.022 239.814 148.485C238.466 149.396 236.699 150.189 234.187 150.189V152.189C237.174 152.189 239.324 151.231 240.934 150.142C241.728 149.605 242.388 149.039 242.929 148.568C243.5 148.071 243.879 147.739 244.201 147.546L243.172 145.831ZM146.046 38.0099C157.353 18.9794 180.064 5.42223 207.785 2.68402L207.588 0.693705C179.364 3.4816 156.02 17.3081 144.327 36.9884L146.046 38.0099ZM145.687 49.6886C144.612 49.6886 144.086 49.4315 143.825 49.1833L142.447 50.6323C143.216 51.3642 144.325 51.6886 145.687 51.6886V49.6886ZM143.825 49.1833C143.533 48.9053 143.3 48.3587 143.253 47.4342C143.206 46.5332 143.346 45.431 143.621 44.2501C144.171 41.8864 145.21 39.4174 146.046 38.0099L144.327 36.9884C143.381 38.5809 142.267 41.243 141.673 43.7971C141.376 45.0751 141.196 46.3784 141.255 47.5365C141.313 48.6711 141.611 49.8371 142.447 50.6323L143.825 49.1833ZM180.687 156.189C180.23 156.189 179.604 155.969 178.84 155.563C178.082 155.161 177.39 154.693 176.704 154.278L175.669 155.989C176.241 156.335 177.083 156.894 177.902 157.33C178.716 157.761 179.711 158.189 180.687 158.189V156.189ZM175.678 155.994C176.469 156.462 176.844 157.265 176.958 158.248C177.074 159.241 176.899 160.277 176.722 160.925L178.651 161.452C178.868 160.657 179.1 159.349 178.945 158.017C178.789 156.675 178.217 155.172 176.695 154.272L175.678 155.994ZM152.094 47.2063L181.28 25.6829L180.093 24.0732L150.906 45.5967L152.094 47.2063Z" fill="black"/>
<path d="M95.9024 66.0714L101.024 55V66.0714L112 62.381L101.756 70.5L108.341 77.881L98.8293 74.1905L93.7073 86V74.1905L82 77.881L92.9756 69.7619L85.6585 62.381L95.9024 66.0714Z" stroke="black" stroke-width="1.5"/>
</svg>
